<?xml version="1.0" encoding="UTF-8"?>
<svg version="1.1" xmlns="http://www.w3.org/2000/svg" width="179" height="55">
<path d="M0 0 C5.72035596 0.33649153 9.88731457 1.88731457 14 6 C13.83508021 13.75123005 9.80003709 19.97890735 4.625 25.5625 C2.05024976 26.97248227 0.66181584 27.27500147 -2.1875 27.5625 C-4.0746875 27.7790625 -4.0746875 27.7790625 -6 28 C-6.99 29.485 -6.99 29.485 -8 31 C-9.32 31 -10.64 31 -12 31 C-12.88945312 30.07574219 -12.88945312 30.07574219 -13.796875 29.1328125 C-16.63873137 26.38165367 -19.50133618 25.71331451 -23.25 24.875 C-23.95237793 24.70959717 -24.65475586 24.54419434 -25.37841797 24.3737793 C-43.04167918 20.38587214 -61.32900377 19.75152138 -79.375 19.6875 C-80.16749146 19.68388458 -80.95998291 19.68026917 -81.77648926 19.67654419 C-97.3620351 19.64831656 -112.45213514 21.23052025 -127.85351562 23.54248047 C-131.89460982 24.13008215 -135.93816195 24.58238678 -140 25 C-140 23.02 -140 21.04 -140 19 C-133.13292177 17.35617091 -126.31942753 16.28587239 -119.3125 15.4375 C-118.32572266 15.31181641 -117.33894531 15.18613281 -116.32226562 15.05664062 C-103.45608737 13.46812088 -90.57613179 12.83975002 -77.625 12.4375 C-76.2916586 12.39412742 -74.95832519 12.35050859 -73.625 12.30664062 C-70.41673612 12.20202332 -67.20841543 12.09984162 -64 12 C-64 11.34 -64 10.68 -64 10 C-64.66 10 -65.32 10 -66 10 C-66 10.66 -66 11.32 -66 12 C-69.63 12 -73.26 12 -77 12 C-77 10.02 -77 8.04 -77 6 C-77.99 6 -78.98 6 -80 6 C-80 7.98 -80 9.96 -80 12 C-80.99 12 -81.98 12 -83 12 C-83 10.35 -83 8.7 -83 7 C-83.99 7.33 -84.98 7.66 -86 8 C-86 9.32 -86 10.64 -86 12 C-88.31 12 -90.62 12 -93 12 C-93 9.33333333 -93 6.66666667 -93 4 C-85.41 3.67 -77.82 3.34 -70 3 C-70.33 4.32 -70.66 5.64 -71 7 C-70.505 7.99 -70.505 7.99 -70 9 C-68.68 7.35 -67.36 5.7 -66 4 C-64.0625 4.3125 -64.0625 4.3125 -62 5 C-61.505 6.485 -61.505 6.485 -61 8 C-60.67 6.68 -60.34 5.36 -60 4 C-54.25 3.875 -54.25 3.875 -52 5 C-52.33 6.65 -52.66 8.3 -53 10 C-52.67 10 -52.34 10 -52 10 C-51.67 8.35 -51.34 6.7 -51 5 C-48.89611431 4.94597726 -46.79183286 4.90719744 -44.6875 4.875 C-42.92986328 4.84019531 -42.92986328 4.84019531 -41.13671875 4.8046875 C-38 5 -38 5 -35 7 C-33.68 7 -32.36 7 -31 7 C-30.505 8.485 -30.505 8.485 -30 10 C-29.67 9.01 -29.34 8.02 -29 7 C-26.91631462 7.31014392 -24.83306332 7.6232052 -22.75 7.9375 C-21.58984375 8.11152344 -20.4296875 8.28554688 -19.234375 8.46484375 C-16.76893039 8.8727736 -14.40575438 9.33901303 -12 10 C-12 10.66 -12 11.32 -12 12 C-12.66 12.33 -13.32 12.66 -14 13 C-13.505 15.97 -13.505 15.97 -13 19 C-11.05666686 18.78648751 -11.05666686 18.78648751 -9 18 C-7.74040601 16.33612523 -7.74040601 16.33612523 -6.89453125 14.21875 C-6.55099609 13.45949219 -6.20746094 12.70023438 -5.85351562 11.91796875 C-5.50998047 11.12003906 -5.16644531 10.32210938 -4.8125 9.5 C-4.11214633 7.92642859 -3.41039627 6.35347769 -2.70703125 4.78125 C-2.4025708 4.08064453 -2.09811035 3.38003906 -1.78442383 2.65820312 C-1 1 -1 1 0 0 Z M-40 8 C-40 9.32 -40 10.64 -40 12 C-39.34 12 -38.68 12 -38 12 C-38 10.68 -38 9.36 -38 8 C-38.66 8 -39.32 8 -40 8 Z M-57 11 C-57 11.66 -57 12.32 -57 13 C-57.99 13.495 -57.99 13.495 -59 14 C-52.73 14.33 -46.46 14.66 -40 15 C-41.32 13.68 -42.64 12.36 -44 11 C-44 11.99 -44 12.98 -44 14 C-44.99 14 -45.98 14 -47 14 C-47 13.01 -47 12.02 -47 11 C-47.66 11 -48.32 11 -49 11 C-49 11.66 -49 12.32 -49 13 C-51.64 12.34 -54.28 11.68 -57 11 Z M-21 11 C-20.34 11.66 -19.68 12.32 -19 13 C-19 12.34 -19 11.68 -19 11 C-19.66 11 -20.32 11 -21 11 Z M-36 13 C-36.99 13.99 -37.98 14.98 -39 16 C-37.02 16 -35.04 16 -33 16 C-33.99 15.01 -34.98 14.02 -36 13 Z M-30.1875 15.9375 C-30.785625 16.288125 -31.38375 16.63875 -32 17 C-23.57203517 18.72427085 -23.57203517 18.72427085 -15 19 C-15 18.67 -15 18.34 -15 18 C-15.68707031 17.86722656 -16.37414062 17.73445313 -17.08203125 17.59765625 C-17.98308594 17.42105469 -18.88414062 17.24445312 -19.8125 17.0625 C-20.70582031 16.88847656 -21.59914063 16.71445312 -22.51953125 16.53515625 C-26.39710537 15.26772638 -26.39710537 15.26772638 -30.1875 15.9375 Z " fill="#FFFFFF" transform="translate(152,21)"/>
<path d="M0 0 C3.96 0 7.92 0 12 0 C6 8 6 8 4.17578125 9.953125 C2.70016923 11.97570249 2.70016923 11.97570249 3.59375 14.40234375 C5.1155341 17.21341715 6.74560377 19.8900193 8.5 22.5625 C10.54300616 25.68327847 12.32655668 28.65311335 14 32 C10.04 32 6.08 32 2 32 C0.35 28.37 -1.3 24.74 -3 21 C-5.27427334 23.71792767 -5.27427334 23.71792767 -4.7578125 26.26171875 C-4.44457031 27.46248047 -4.44457031 27.46248047 -4.125 28.6875 C-3.75375 30.110625 -3.3825 31.53375 -3 33 C-8.94 33.495 -8.94 33.495 -15 34 C-15.04898437 32.288125 -15.09796875 30.57625 -15.1484375 28.8125 C-15.22350687 26.5416517 -15.29905287 24.27081912 -15.375 22 C-15.4059375 20.87464844 -15.436875 19.74929687 -15.46875 18.58984375 C-15.6849137 12.42917826 -16.21877091 6.90846723 -18 1 C-13.71 1 -9.42 1 -5 1 C-5 3.64 -5 6.28 -5 9 C-3.35 6.03 -1.7 3.06 0 0 Z " fill="#FFFFFF" transform="translate(44,2)"/>
<path d="M0 0 C1.72115987 0.96299826 3.40905701 1.9873799 5.0625 3.0625 C9.7815234 6.13023217 12.43411161 6.67174515 18 6 C18.66 5.835 19.32 5.67 20 5.5 C25.06549606 4.23362598 28.78424573 4.39212287 33.375 6.6875 C36.13239404 9.11663284 37.11846992 10.47387967 38 14 C38 15.32 38 16.64 38 18 C36.1875 17.875 36.1875 17.875 34 17 C32.3125 14 32.3125 14 31 11 C29.4483498 9.4483498 27.96270239 9.8305084 25.8125 9.8125 C21.82462131 9.84404967 18.765869 10.66102435 15 12 C9.41315238 12.72871925 5.72619346 10.68697293 1 8 C1.33 8.33 1.66 8.66 2 9 C2.375 11.3125 2.375 11.3125 2 14 C-0.11138734 16.44129161 -1.74558803 17.77644143 -4.97265625 18.3515625 C-8.32869734 18.48956793 -10.60731889 18.23560867 -13.5 16.5 C-13.995 16.005 -14.49 15.51 -15 15 C-14 12 -14 12 -12 10 C-12.66 9.01 -13.32 8.02 -14 7 C-13.85067143 4.01342864 -13.37181669 2.46477087 -11.5 0.125 C-7.51118446 -1.66996699 -4.15031071 -1.20807166 0 0 Z M-7 5 C-5.16715557 6.12516085 -5.16715557 6.12516085 -3 7 C-2.01 6.67 -1.02 6.34 0 6 C-1.12534105 4.64381501 -1.12534105 4.64381501 -4.0625 4.9375 C-5.031875 4.958125 -6.00125 4.97875 -7 5 Z " fill="#FFFFFF" transform="translate(123,3)"/>
<path d="M0 0 C2.1875 1.625 2.1875 1.625 3.1875 3.625 C3.227492 5.62460012 3.23096799 7.62547242 3.1875 9.625 C2.1975 9.955 1.2075 10.285 0.1875 10.625 C0.8475 11.285 1.5075 11.945 2.1875 12.625 C2 14.625 2 14.625 1.1875 16.625 C-2.48158557 19.07105705 -5.54868769 19.46446402 -9.8125 18.625 C-12.50355198 16.44925584 -14.26782928 14.71434144 -15.8125 11.625 C-16.22454834 6.98945612 -15.68704146 4.32083902 -12.8125 0.625 C-8.72513572 -2.33481551 -4.43094062 -2.16623764 0 0 Z M-8.8125 9.625 C-8.4825 10.285 -8.1525 10.945 -7.8125 11.625 C-6.4925 11.295 -5.1725 10.965 -3.8125 10.625 C-3.8125 10.295 -3.8125 9.965 -3.8125 9.625 C-5.4625 9.625 -7.1125 9.625 -8.8125 9.625 Z " fill="#FFFFFF" transform="translate(67.8125,3.375)"/>
<path d="M0 0 C3.03965634 1.8108591 4.60422231 2.90400023 5.8125 6.25 C5.874375 6.8275 5.93625 7.405 6 8 C4.68 8.33 3.36 8.66 2 9 C2.99 9.99 3.98 10.98 5 12 C4.4375 14.375 4.4375 14.375 3 17 C-0.99534587 18.84400579 -3.03668323 19.31493048 -7.25 17.9375 C-10.31229269 15.7799756 -11.65025697 14.49345256 -13 11 C-12.93249957 7.15247539 -12.51858903 4.80899889 -10.4375 1.5625 C-7.01259709 -0.63295058 -3.89625765 -0.77306699 0 0 Z M-7 8 C-6.67 8.99 -6.34 9.98 -6 11 C-4.35 10.67 -2.7 10.34 -1 10 C-1 9.34 -1 8.68 -1 8 C-2.98 8 -4.96 8 -7 8 Z " fill="#FFFFFF" transform="translate(85,3)"/>
<path d="M0 0 C2.76293226 0.68650218 2.76293226 0.68650218 5.8125 -0.125 C8.6875 -0.5 8.6875 -0.5 10.5 0.8125 C13.06461231 4.45694907 12.79024006 7.19859316 12.75 11.625 C12.74097656 12.90632812 12.73195313 14.18765625 12.72265625 15.5078125 C12.71105469 16.49523437 12.69945313 17.48265625 12.6875 18.5 C10.7075 18.5 8.7275 18.5 6.6875 18.5 C6.71070312 17.87351562 6.73390625 17.24703125 6.7578125 16.6015625 C6.77585937 15.78429687 6.79390625 14.96703125 6.8125 14.125 C6.84730469 12.90683594 6.84730469 12.90683594 6.8828125 11.6640625 C6.90120051 9.28657757 6.90120051 9.28657757 4.6875 7.5 C3.42800951 8.53406673 3.42800951 8.53406673 3.58984375 10.78515625 C3.60144531 11.70167969 3.61304687 12.61820313 3.625 13.5625 C3.63853516 14.94115234 3.63853516 14.94115234 3.65234375 16.34765625 C3.66394531 17.05792969 3.67554687 17.76820312 3.6875 18.5 C1.0475 18.5 -1.5925 18.5 -4.3125 18.5 C-4.21710938 17.70335938 -4.12171875 16.90671875 -4.0234375 16.0859375 C-3.11852301 8.11612286 -3.11852301 8.11612286 -5.3125 0.5 C-2.3125 -0.5 -2.3125 -0.5 0 0 Z " fill="#FFFFFF" transform="translate(94.3125,2.5)"/>
<path d="M0 0 C4.29 0 8.58 0 13 0 C14 4 14 4 13 6 C11.02090602 6.02686553 9.04171029 6.04633375 7.0625 6.0625 C5.96035156 6.07410156 4.85820313 6.08570313 3.72265625 6.09765625 C1 6 1 6 0 5 C0 3.35 0 1.7 0 0 Z " fill="#FFFFFF" transform="translate(46,42)"/>
<path d="M0 0 C0 0.66 0 1.32 0 2 C0.99 2 1.98 2 3 2 C3 2.66 3 3.32 3 4 C2.2575 3.95875 1.515 3.9175 0.75 3.875 C-1.95531108 3.80607234 -1.95531108 3.80607234 -3.9375 5 C-6.6877147 6.33343743 -8.98592292 6.1370035 -12 6 C-12.33 4.02 -12.66 2.04 -13 0 C-11.02 0 -9.04 0 -7 0 C-6.67 0.99 -6.34 1.98 -6 3 C-6 2.01 -6 1.02 -6 0 C-2.25 -1.125 -2.25 -1.125 0 0 Z " fill="#FFFFFF" transform="translate(36,45)"/>
<path d="M0 0 C0.66 0 1.32 0 2 0 C2.33 1.98 2.66 3.96 3 6 C1.68 5.67 0.36 5.34 -1 5 C-0.67 3.35 -0.34 1.7 0 0 Z " fill="#FFFFFF" transform="translate(43,42)"/>
</svg>
